<svg xmlns="http://www.w3.org/2000/svg" xmlns:xlink="http://www.w3.org/1999/xlink" width="217.432" height="28.402" viewBox="0 0 217.432 28.402"><defs><clipPath id="a"><rect width="217.432" height="28.402" fill="none"/></clipPath><linearGradient id="b" y1="0.5" x2="1" y2="0.5" gradientUnits="objectBoundingBox"><stop offset="0" stop-color="#c42f51"/><stop offset="1" stop-color="#db7f67"/></linearGradient></defs><g clip-path="url(#a)"><rect width="217" height="28.4" transform="translate(0.432)" fill="#fff"/><path d="M-84.623-18.136-88.252-.465h-7.092l.333-1.615A6.95,6.95,0,0,1-99.94-.142a7.266,7.266,0,0,1-3.6-.969,7.45,7.45,0,0,1-2.814-2.827,8.542,8.542,0,0,1-1.082-4.377,10.317,10.317,0,0,1,1.315-5.169,9.729,9.729,0,0,1,3.546-3.651,9.291,9.291,0,0,1,4.828-1.325q3.663,0,5.194,2.2l.4-1.874ZM-99.806-8.671a2.823,2.823,0,0,0,.716,2.019,2.591,2.591,0,0,0,1.981.759,2.953,2.953,0,0,0,2.381-1.1,4.445,4.445,0,0,0,.916-2.94,2.823,2.823,0,0,0-.716-2.019,2.591,2.591,0,0,0-1.981-.759,2.953,2.953,0,0,0-2.381,1.1A4.445,4.445,0,0,0-99.806-8.671Zm38.425-9.466L-65.011-.465H-72.1l.366-1.777A7.769,7.769,0,0,1-74.3-.659a8.108,8.108,0,0,1-2.83.517,6.856,6.856,0,0,1-4.695-1.551,5.618,5.618,0,0,1-1.765-4.458,11.021,11.021,0,0,1,.233-2.229l2-9.756h7.525l-1.831,8.884a7.531,7.531,0,0,0-.133,1.1A1.638,1.638,0,0,0-73.968-6.28q2.6,0,3.3-3.36l1.765-8.5Zm9.456,10.725a3.852,3.852,0,0,0-.067.517q0,1.228,1.4,1.228a4.128,4.128,0,0,0,1.665-.42l.866,4.91A10.388,10.388,0,0,1-52.99-.142,7.556,7.556,0,0,1-57.868-1.58,4.914,4.914,0,0,1-59.65-5.634a8.085,8.085,0,0,1,.2-1.745l.932-4.458h-2.531l1.1-5.33h2.5l1.032-4.943h7.525l-1.032,4.943H-46.2l-1.1,5.33h-3.729ZM-36.209-.142A12.494,12.494,0,0,1-41.436-1.16a7.972,7.972,0,0,1-3.446-2.859,7.62,7.62,0,0,1-1.215-4.3A9.477,9.477,0,0,1-44.633-13.5a10.185,10.185,0,0,1,4.046-3.634,12.612,12.612,0,0,1,5.844-1.325,12.494,12.494,0,0,1,5.228,1.018,7.972,7.972,0,0,1,3.446,2.859,7.62,7.62,0,0,1,1.215,4.3A9.477,9.477,0,0,1-26.319-5.1a10.185,10.185,0,0,1-4.046,3.634A12.612,12.612,0,0,1-36.209-.142Zm.433-5.75a2.953,2.953,0,0,0,2.381-1.1,4.445,4.445,0,0,0,.916-2.94A2.823,2.823,0,0,0-33.2-11.95a2.591,2.591,0,0,0-1.981-.759,2.953,2.953,0,0,0-2.381,1.1,4.445,4.445,0,0,0-.916,2.94,2.823,2.823,0,0,0,.716,2.019A2.591,2.591,0,0,0-35.776-5.893Zm14.051-6.655h9.989l-1.132,5.492h-9.989ZM-3.477-.142A22.578,22.578,0,0,1-8.039-.595a11.734,11.734,0,0,1-3.43-1.163l2.6-4.975a10.905,10.905,0,0,0,3.013,1.2,13.914,13.914,0,0,0,3.313.42q2.231,0,2.231-.84,0-.355-.583-.533a12.3,12.3,0,0,0-1.848-.339,24.678,24.678,0,0,1-3.33-.695,5.653,5.653,0,0,1-2.4-1.421A3.79,3.79,0,0,1-9.5-11.772a5.468,5.468,0,0,1,2.864-4.975A14.251,14.251,0,0,1,.751-18.459,21.268,21.268,0,0,1,4.6-18.12a14.2,14.2,0,0,1,3.28.985L5.28-12.16A10.914,10.914,0,0,0-.148-13.484a4.369,4.369,0,0,0-1.748.258q-.549.258-.549.614t.566.533a16.1,16.1,0,0,0,1.931.4,24.16,24.16,0,0,1,3.28.695A5.541,5.541,0,0,1,5.7-9.559,3.781,3.781,0,0,1,6.712-6.765,5.249,5.249,0,0,1,5.363-3.13,8.136,8.136,0,0,1,1.7-.885,16.889,16.889,0,0,1-3.477-.142Zm34.8-17.994L27.689-.465H20.6l.366-1.777A7.77,7.77,0,0,1,18.4-.659a8.108,8.108,0,0,1-2.83.517,6.856,6.856,0,0,1-4.695-1.551A5.618,5.618,0,0,1,9.109-6.151,11.02,11.02,0,0,1,9.342-8.38l2-9.756h7.525L17.034-9.252a7.533,7.533,0,0,0-.133,1.1A1.638,1.638,0,0,0,18.732-6.28q2.6,0,3.3-3.36l1.765-8.5ZM46.3-18.459a7.266,7.266,0,0,1,3.6.969,7.45,7.45,0,0,1,2.814,2.827,8.542,8.542,0,0,1,1.082,4.377,10.317,10.317,0,0,1-1.315,5.169,9.729,9.729,0,0,1-3.546,3.651A9.291,9.291,0,0,1,44.1-.142q-3.663,0-5.194-2.2L37.212,5.8H29.687l4.928-23.938h7.092l-.333,1.615A6.95,6.95,0,0,1,46.3-18.459ZM42.873-5.893a2.953,2.953,0,0,0,2.381-1.1,4.445,4.445,0,0,0,.916-2.94,2.823,2.823,0,0,0-.716-2.019,2.591,2.591,0,0,0-1.981-.759,2.953,2.953,0,0,0-2.381,1.1,4.445,4.445,0,0,0-.916,2.94,2.823,2.823,0,0,0,.716,2.019A2.591,2.591,0,0,0,42.873-5.893Zm32.8-4.781a12.791,12.791,0,0,1-.4,3.069H62.518a2.241,2.241,0,0,0,1.1,1.583,4.943,4.943,0,0,0,2.4.485,6.585,6.585,0,0,0,3.962-1.228l3.13,4.426a14.122,14.122,0,0,1-7.958,2.2,12.934,12.934,0,0,1-5.244-1,8.046,8.046,0,0,1-3.53-2.843,7.527,7.527,0,0,1-1.249-4.329,9.786,9.786,0,0,1,1.415-5.217,9.74,9.74,0,0,1,3.979-3.618,12.789,12.789,0,0,1,5.894-1.308,11.572,11.572,0,0,1,4.961.985,7.315,7.315,0,0,1,3.2,2.746A7.5,7.5,0,0,1,75.67-10.674Zm-9.59-2.811a3.251,3.251,0,0,0-2.048.63,3.732,3.732,0,0,0-1.215,1.728h5.96a2.16,2.16,0,0,0-.733-1.728A2.91,2.91,0,0,0,66.081-13.484Zm20.145-2.843a8.893,8.893,0,0,1,6.393-2.132L91.287-12a10.628,10.628,0,0,0-1.632-.129,5.028,5.028,0,0,0-3.047.824,4.288,4.288,0,0,0-1.515,2.665L83.4-.465H75.87L79.5-18.136h7.092ZM98.646-.142a22.578,22.578,0,0,1-4.562-.452,11.734,11.734,0,0,1-3.43-1.163l2.6-4.975a10.905,10.905,0,0,0,3.013,1.2,13.914,13.914,0,0,0,3.313.42q2.231,0,2.231-.84,0-.355-.583-.533a12.3,12.3,0,0,0-1.848-.339,24.678,24.678,0,0,1-3.33-.695,5.653,5.653,0,0,1-2.4-1.421,3.79,3.79,0,0,1-1.032-2.827,5.468,5.468,0,0,1,2.864-4.975,14.251,14.251,0,0,1,7.392-1.712,21.268,21.268,0,0,1,3.846.339,14.2,14.2,0,0,1,3.28.985l-2.6,4.975a10.914,10.914,0,0,0-5.427-1.325,4.369,4.369,0,0,0-1.748.258q-.549.258-.549.614t.566.533a16.1,16.1,0,0,0,1.931.4,24.16,24.16,0,0,1,3.28.695,5.541,5.541,0,0,1,2.364,1.421,3.781,3.781,0,0,1,1.016,2.794,5.249,5.249,0,0,1-1.349,3.634,8.136,8.136,0,0,1-3.663,2.245A16.889,16.889,0,0,1,98.646-.142Z" transform="translate(107.432 22.6)" fill="url(#b)"/></g></svg>